<?xml version="1.0" encoding="UTF-8"?> <svg xmlns="http://www.w3.org/2000/svg" width="80" height="80" viewBox="0 0 80 80" fill="none"><rect width="80" height="80" rx="40" fill="white"></rect><path d="M53.3334 31.6666V31.3333C53.3334 28.533 53.3334 27.1329 52.7884 26.0633C52.3091 25.1225 51.5442 24.3576 50.6034 23.8782C49.5338 23.3333 48.1337 23.3333 45.3334 23.3333H34.6667C31.8665 23.3333 30.4664 23.3333 29.3968 23.8782C28.456 24.3576 27.6911 25.1225 27.2117 26.0633C26.6667 27.1329 26.6667 28.533 26.6667 31.3333V48.6666C26.6667 51.4668 26.6667 52.867 27.2117 53.9365C27.6911 54.8774 28.456 55.6423 29.3968 56.1216C30.4664 56.6666 31.8665 56.6666 34.6667 56.6666H40.8334M50.0001 49.9999V40.8333C50.0001 39.4525 51.1194 38.3333 52.5001 38.3333C53.8808 38.3333 55.0001 39.4525 55.0001 40.8333V49.9999C55.0001 52.7613 52.7615 54.9999 50.0001 54.9999C47.2387 54.9999 45.0001 52.7613 45.0001 49.9999V43.3333" stroke="url(#paint0_linear_682_338)" stroke-width="2" stroke-linecap="round" stroke-linejoin="round"></path><defs><linearGradient id="paint0_linear_682_338" x1="26.6667" y1="39.2521" x2="55.0001" y2="39.2521" gradientUnits="userSpaceOnUse"><stop stop-color="#C65094"></stop><stop offset="0.495192" stop-color="#4884C3"></stop><stop offset="1" stop-color="#6C3088"></stop></linearGradient></defs></svg> 