<?xml version="1.0" encoding="UTF-8"?> <svg xmlns="http://www.w3.org/2000/svg" width="34" height="24" viewBox="0 0 34 24" fill="none"><g clip-path="url(#clip0_87_2177)"><mask id="mask0_87_2177" style="mask-type:alpha" maskUnits="userSpaceOnUse" x="0" y="0" width="34" height="24"><path d="M30.4 0H3.2C1.43269 0 0 1.43269 0 3.2V20.8C0 22.5673 1.43269 24 3.2 24H30.4C32.1673 24 33.6 22.5673 33.6 20.8V3.2C33.6 1.43269 32.1673 0 30.4 0Z" fill="white"></path></mask><g mask="url(#mask0_87_2177)"><path d="M30.4 0H3.2C1.43269 0 0 1.43269 0 3.2V20.8C0 22.5673 1.43269 24 3.2 24H30.4C32.1673 24 33.6 22.5673 33.6 20.8V3.2C33.6 1.43269 32.1673 0 30.4 0Z" fill="#FBE22B"></path><path fill-rule="evenodd" clip-rule="evenodd" d="M0 0H11.2V24H0V0Z" fill="black"></path><path fill-rule="evenodd" clip-rule="evenodd" d="M22.4004 0H33.6004V24H22.4004V0Z" fill="#F02532"></path><path d="M30.3998 0.800049H3.1998C1.87432 0.800049 0.799805 1.87457 0.799805 3.20005V20.8C0.799805 22.1255 1.87432 23.2 3.1998 23.2H30.3998C31.7253 23.2 32.7998 22.1255 32.7998 20.8V3.20005C32.7998 1.87457 31.7253 0.800049 30.3998 0.800049Z" stroke="black" stroke-opacity="0.1"></path></g></g><defs><clipPath id="clip0_87_2177"><rect width="33.6" height="24" fill="white"></rect></clipPath></defs></svg> 