<?xml version="1.0" encoding="UTF-8"?> <svg xmlns="http://www.w3.org/2000/svg" width="299" height="299" viewBox="0 0 299 299" fill="none"><path d="M149.5 8.25C184.831 46.9292 204.909 97.125 206 149.5C204.909 201.875 184.831 252.071 149.5 290.75M149.5 8.25C114.169 46.9292 94.0911 97.125 93 149.5C94.0911 201.875 114.169 252.071 149.5 290.75M149.5 8.25C71.4898 8.25 8.25 71.4898 8.25 149.5C8.25 227.51 71.4898 290.75 149.5 290.75M149.5 8.25C227.51 8.25 290.75 71.4898 290.75 149.5C290.75 227.51 227.51 290.75 149.5 290.75M15.3128 107.125H283.688M15.3125 191.875H283.688" stroke="url(#paint0_linear_486_195)" stroke-width="16" stroke-linecap="round" stroke-linejoin="round"></path><defs><linearGradient id="paint0_linear_486_195" x1="8.25" y1="143.162" x2="290.75" y2="143.162" gradientUnits="userSpaceOnUse"><stop stop-color="#C65094"></stop><stop offset="0.495192" stop-color="#4884C3"></stop><stop offset="1" stop-color="#6C3088"></stop></linearGradient></defs></svg> 