<?xml version="1.0" encoding="UTF-8"?> <svg xmlns="http://www.w3.org/2000/svg" width="80" height="80" viewBox="0 0 80 80" fill="none"><rect width="80" height="80" rx="40" fill="white"></rect><path d="M43.3334 38.3333H33.3334M36.6667 44.9999H33.3334M46.6667 31.6666H33.3334M53.3334 31.3333V48.6666C53.3334 51.4668 53.3334 52.867 52.7884 53.9365C52.3091 54.8773 51.5442 55.6423 50.6034 56.1216C49.5338 56.6666 48.1337 56.6666 45.3334 56.6666H34.6667C31.8665 56.6666 30.4664 56.6666 29.3968 56.1216C28.456 55.6423 27.6911 54.8773 27.2117 53.9365C26.6667 52.867 26.6667 51.4668 26.6667 48.6666V31.3333C26.6667 28.533 26.6667 27.1329 27.2117 26.0633C27.6911 25.1225 28.456 24.3576 29.3968 23.8782C30.4664 23.3333 31.8665 23.3333 34.6667 23.3333H45.3334C48.1337 23.3333 49.5338 23.3333 50.6034 23.8782C51.5442 24.3576 52.3091 25.1225 52.7884 26.0633C53.3334 27.1329 53.3334 28.533 53.3334 31.3333Z" stroke="url(#paint0_linear_682_346)" stroke-width="2" stroke-linecap="round" stroke-linejoin="round"></path><defs><linearGradient id="paint0_linear_682_346" x1="26.6667" y1="39.2521" x2="53.3334" y2="39.2521" gradientUnits="userSpaceOnUse"><stop stop-color="#C65094"></stop><stop offset="0.495192" stop-color="#4884C3"></stop><stop offset="1" stop-color="#6C3088"></stop></linearGradient></defs></svg> 