<?xml version="1.0" encoding="UTF-8"?> <svg xmlns="http://www.w3.org/2000/svg" width="80" height="80" viewBox="0 0 80 80" fill="none"><rect width="80" height="80" rx="40" fill="white"></rect><path d="M43.3334 23.7825V30.6667C43.3334 31.6001 43.3334 32.0668 43.5151 32.4234C43.6749 32.737 43.9298 32.9919 44.2434 33.1517C44.5999 33.3334 45.0667 33.3334 46.0001 33.3334H52.8843M46.6667 41.6666H33.3334M46.6667 48.3333H33.3334M36.6667 34.9999H33.3334M43.3334 23.3333H34.6667C31.8665 23.3333 30.4664 23.3333 29.3968 23.8782C28.456 24.3576 27.6911 25.1225 27.2117 26.0633C26.6667 27.1329 26.6667 28.533 26.6667 31.3333V48.6666C26.6667 51.4668 26.6667 52.867 27.2117 53.9365C27.6911 54.8773 28.456 55.6423 29.3968 56.1216C30.4664 56.6666 31.8665 56.6666 34.6667 56.6666H45.3334C48.1337 56.6666 49.5338 56.6666 50.6034 56.1216C51.5442 55.6423 52.3091 54.8773 52.7884 53.9365C53.3334 52.867 53.3334 51.4668 53.3334 48.6666V33.3333L43.3334 23.3333Z" stroke="url(#paint0_linear_682_334)" stroke-width="2" stroke-linecap="round" stroke-linejoin="round"></path><defs><linearGradient id="paint0_linear_682_334" x1="26.6667" y1="39.2521" x2="53.3334" y2="39.2521" gradientUnits="userSpaceOnUse"><stop stop-color="#C65094"></stop><stop offset="0.495192" stop-color="#4884C3"></stop><stop offset="1" stop-color="#6C3088"></stop></linearGradient></defs></svg> 