<?xml version="1.0" encoding="UTF-8"?> <svg xmlns="http://www.w3.org/2000/svg" width="80" height="80" viewBox="0 0 80 80" fill="none"><rect width="80" height="80" rx="40" fill="white"></rect><path d="M40.0001 45C34.7166 45 30.0181 47.5511 27.0267 51.5099C26.3829 52.362 26.061 52.788 26.0715 53.3638C26.0797 53.8086 26.359 54.3698 26.709 54.6445C27.1621 55 27.7899 55 29.0455 55H50.9547C52.2103 55 52.8381 55 53.2911 54.6445C53.6411 54.3698 53.9205 53.8086 53.9286 53.3638C53.9391 52.788 53.6172 52.362 52.9734 51.5099C49.9821 47.5511 45.2835 45 40.0001 45Z" stroke="url(#paint0_linear_682_326)" stroke-width="2" stroke-linecap="round" stroke-linejoin="round"></path><path d="M40.0001 40C44.1422 40 47.5001 36.6421 47.5001 32.5C47.5001 28.3579 44.1422 25 40.0001 25C35.8579 25 32.5001 28.3579 32.5001 32.5C32.5001 36.6421 35.8579 40 40.0001 40Z" stroke="url(#paint1_linear_682_326)" stroke-width="2" stroke-linecap="round" stroke-linejoin="round"></path><defs><linearGradient id="paint0_linear_682_326" x1="26.0713" y1="39.3269" x2="53.9289" y2="39.3269" gradientUnits="userSpaceOnUse"><stop stop-color="#C65094"></stop><stop offset="0.495192" stop-color="#4884C3"></stop><stop offset="1" stop-color="#6C3088"></stop></linearGradient><linearGradient id="paint1_linear_682_326" x1="26.0713" y1="39.3269" x2="53.9289" y2="39.3269" gradientUnits="userSpaceOnUse"><stop stop-color="#C65094"></stop><stop offset="0.495192" stop-color="#4884C3"></stop><stop offset="1" stop-color="#6C3088"></stop></linearGradient></defs></svg> 