<?xml version="1.0" encoding="UTF-8"?> <svg xmlns="http://www.w3.org/2000/svg" width="36" height="32" viewBox="0 0 36 32" fill="none"><path d="M26.3335 20.1666V15.1573C26.3335 14.8582 26.3335 14.7086 26.288 14.5766C26.2477 14.4598 26.1819 14.3535 26.0955 14.2652C25.9978 14.1654 25.864 14.0985 25.5964 13.9648L18.0002 10.1666M4.66683 11.8333V23.1776C4.66683 23.7975 4.66683 24.1074 4.76353 24.3788C4.84901 24.6187 4.98833 24.8358 5.17079 25.0134C5.37719 25.2144 5.65895 25.3436 6.22242 25.6018L16.8891 30.4907C17.2978 30.678 17.5022 30.7717 17.7151 30.8087C17.9037 30.8414 18.0966 30.8414 18.2853 30.8087C18.4982 30.7717 18.7025 30.678 19.1112 30.4907L29.7779 25.6018C30.3414 25.3436 30.6231 25.2144 30.8295 25.0134C31.012 24.8358 31.1513 24.6187 31.2368 24.3788C31.3335 24.1074 31.3335 23.7975 31.3335 23.1776V11.8333M1.3335 10.1666L17.4039 2.13142C17.6225 2.0221 17.7318 1.96744 17.8465 1.94593C17.9481 1.92688 18.0523 1.92688 18.1538 1.94593C18.2685 1.96744 18.3778 2.0221 18.5964 2.13142L34.6668 10.1666L18.5964 18.2018C18.3778 18.3111 18.2685 18.3658 18.1538 18.3873C18.0523 18.4063 17.9481 18.4063 17.8465 18.3873C17.7318 18.3658 17.6225 18.3111 17.4039 18.2018L1.3335 10.1666Z" stroke="white" stroke-width="2" stroke-linecap="round" stroke-linejoin="round"></path></svg> 