<?xml version="1.0" encoding="UTF-8"?> <svg xmlns="http://www.w3.org/2000/svg" width="30" height="36" viewBox="0 0 30 36" fill="none"><path d="M18.3332 1.78259V8.66683C18.3332 9.60025 18.3332 10.067 18.5148 10.4235C18.6746 10.7371 18.9296 10.992 19.2432 11.1518C19.5997 11.3335 20.0664 11.3335 20.9998 11.3335H27.8841M21.6665 19.6667H8.33317M21.6665 26.3334H8.33317M11.6665 13H8.33317M18.3332 1.33337H9.6665C6.86624 1.33337 5.46611 1.33337 4.39655 1.87834C3.45574 2.35771 2.69084 3.12261 2.21147 4.06342C1.6665 5.13298 1.6665 6.53311 1.6665 9.33337V26.6667C1.6665 29.467 1.6665 30.8671 2.21147 31.9367C2.69084 32.8775 3.45574 33.6424 4.39655 34.1217C5.46611 34.6667 6.86624 34.6667 9.6665 34.6667H20.3332C23.1334 34.6667 24.5336 34.6667 25.6031 34.1217C26.5439 33.6424 27.3088 32.8775 27.7882 31.9367C28.3332 30.8671 28.3332 29.467 28.3332 26.6667V11.3334L18.3332 1.33337Z" stroke="white" stroke-width="2" stroke-linecap="round" stroke-linejoin="round"></path></svg> 