<?xml version="1.0" encoding="UTF-8"?> <svg xmlns="http://www.w3.org/2000/svg" width="30" height="36" viewBox="0 0 30 36" fill="none"><path d="M18.3332 16.3334H8.33317M11.6665 23H8.33317M21.6665 9.66671H8.33317M28.3332 9.33337V26.6667C28.3332 29.467 28.3332 30.8671 27.7882 31.9367C27.3088 32.8775 26.5439 33.6424 25.6031 34.1217C24.5336 34.6667 23.1334 34.6667 20.3332 34.6667H9.6665C6.86624 34.6667 5.46611 34.6667 4.39655 34.1217C3.45574 33.6424 2.69084 32.8775 2.21147 31.9367C1.6665 30.8671 1.6665 29.467 1.6665 26.6667V9.33337C1.6665 6.53311 1.6665 5.13298 2.21147 4.06342C2.69084 3.12261 3.45574 2.35771 4.39655 1.87834C5.46611 1.33337 6.86624 1.33337 9.6665 1.33337H20.3332C23.1334 1.33337 24.5336 1.33337 25.6031 1.87834C26.5439 2.35771 27.3088 3.12261 27.7882 4.06342C28.3332 5.13298 28.3332 6.53311 28.3332 9.33337Z" stroke="white" stroke-width="2" stroke-linecap="round" stroke-linejoin="round"></path></svg> 