<?xml version="1.0" encoding="UTF-8"?> <svg xmlns="http://www.w3.org/2000/svg" width="31" height="36" viewBox="0 0 31 36" fill="none"><path d="M28.3332 18.8334V9.33337C28.3332 6.53311 28.3332 5.13298 27.7882 4.06342C27.3088 3.12261 26.5439 2.35771 25.6031 1.87834C24.5336 1.33337 23.1334 1.33337 20.3332 1.33337H9.6665C6.86624 1.33337 5.46611 1.33337 4.39655 1.87834C3.45574 2.35771 2.69084 3.12261 2.21147 4.06342C1.6665 5.13298 1.6665 6.53311 1.6665 9.33337V26.6667C1.6665 29.467 1.6665 30.8671 2.21147 31.9367C2.69084 32.8775 3.45574 33.6424 4.39655 34.1217C5.46611 34.6667 6.8662 34.6667 9.66639 34.6667H14.9998M19.1665 29.6667L22.4998 33L29.9998 25.5" stroke="white" stroke-width="2" stroke-linecap="round" stroke-linejoin="round"></path></svg> 