<svg width="80" height="80" viewBox="0 0 80 80" fill="none" xmlns="http://www.w3.org/2000/svg">
<rect width="80" height="80" rx="40" fill="url(#paint0_linear_32_76)"/>
<path d="M53.3333 31.6667V31.3334C53.3333 28.5331 53.3333 27.133 52.7883 26.0634C52.309 25.1226 51.5441 24.3577 50.6032 23.8783C49.5337 23.3334 48.1336 23.3334 45.3333 23.3334H34.6666C31.8664 23.3334 30.4662 23.3334 29.3967 23.8783C28.4559 24.3577 27.691 25.1226 27.2116 26.0634C26.6666 27.133 26.6666 28.5331 26.6666 31.3334V48.6667C26.6666 51.467 26.6666 52.8671 27.2116 53.9367C27.691 54.8775 28.4559 55.6424 29.3967 56.1217C30.4662 56.6667 31.8664 56.6667 34.6666 56.6667H40.8333M50 50V40.8334C50 39.4527 51.1192 38.3334 52.5 38.3334C53.8807 38.3334 55 39.4527 55 40.8334V50C55 52.7615 52.7614 55 50 55C47.2385 55 45 52.7615 45 50V43.3334" stroke="white" stroke-width="2" stroke-linecap="round" stroke-linejoin="round"/>
<defs>
<linearGradient id="paint0_linear_32_76" x1="0" y1="38.2051" x2="80" y2="38.2051" gradientUnits="userSpaceOnUse">
<stop stop-color="#C65094"/>
<stop offset="0.495192" stop-color="#4884C3"/>
<stop offset="1" stop-color="#6C3088"/>
</linearGradient>
</defs>
</svg>
