<svg width="80" height="80" viewBox="0 0 80 80" fill="none" xmlns="http://www.w3.org/2000/svg">
<rect width="80" height="80" rx="40" fill="url(#paint0_linear_44_164)"/>
<path d="M43.3334 38.3333H33.3334M36.6667 44.9999H33.3334M46.6667 31.6666H33.3334M53.3334 31.3333V48.6666C53.3334 51.4668 53.3334 52.867 52.7884 53.9365C52.309 54.8773 51.5441 55.6423 50.6033 56.1216C49.5337 56.6666 48.1336 56.6666 45.3334 56.6666H34.6667C31.8664 56.6666 30.4663 56.6666 29.3967 56.1216C28.4559 55.6423 27.691 54.8773 27.2117 53.9365C26.6667 52.867 26.6667 51.4668 26.6667 48.6666V31.3333C26.6667 28.533 26.6667 27.1329 27.2117 26.0633C27.691 25.1225 28.4559 24.3576 29.3967 23.8782C30.4663 23.3333 31.8664 23.3333 34.6667 23.3333H45.3334C48.1336 23.3333 49.5337 23.3333 50.6033 23.8782C51.5441 24.3576 52.309 25.1225 52.7884 26.0633C53.3334 27.1329 53.3334 28.533 53.3334 31.3333Z" stroke="white" stroke-width="2" stroke-linecap="round" stroke-linejoin="round"/>
<defs>
<linearGradient id="paint0_linear_44_164" x1="0" y1="38.2051" x2="80" y2="38.2051" gradientUnits="userSpaceOnUse">
<stop stop-color="#C65094"/>
<stop offset="0.495192" stop-color="#4884C3"/>
<stop offset="1" stop-color="#6C3088"/>
</linearGradient>
</defs>
</svg>
