<svg width="80" height="80" viewBox="0 0 80 80" fill="none" xmlns="http://www.w3.org/2000/svg">
<rect width="80" height="80" rx="40" fill="url(#paint0_linear_32_56)"/>
<path d="M43.3334 23.7826V30.6668C43.3334 31.6002 43.3334 32.067 43.515 32.4235C43.6748 32.7371 43.9298 32.992 44.2434 33.1518C44.5999 33.3335 45.0666 33.3335 46 33.3335H52.8843M46.6667 41.6667H33.3334M46.6667 48.3334H33.3334M36.6667 35H33.3334M43.3334 23.3334H34.6667C31.8664 23.3334 30.4663 23.3334 29.3967 23.8783C28.4559 24.3577 27.691 25.1226 27.2117 26.0634C26.6667 27.133 26.6667 28.5331 26.6667 31.3334V48.6667C26.6667 51.467 26.6667 52.8671 27.2117 53.9367C27.691 54.8775 28.4559 55.6424 29.3967 56.1217C30.4663 56.6667 31.8664 56.6667 34.6667 56.6667H45.3334C48.1336 56.6667 49.5337 56.6667 50.6033 56.1217C51.5441 55.6424 52.309 54.8775 52.7884 53.9367C53.3334 52.8671 53.3334 51.467 53.3334 48.6667V33.3334L43.3334 23.3334Z" stroke="white" stroke-width="2" stroke-linecap="round" stroke-linejoin="round"/>
<defs>
<linearGradient id="paint0_linear_32_56" x1="0" y1="38.2051" x2="80" y2="38.2051" gradientUnits="userSpaceOnUse">
<stop stop-color="#C65094"/>
<stop offset="0.495192" stop-color="#4884C3"/>
<stop offset="1" stop-color="#6C3088"/>
</linearGradient>
</defs>
</svg>
